<svg xmlns="http://www.w3.org/2000/svg" width="512" height="512" viewBox="0 0 512 512">
  <rect width="512" height="512" rx="50" fill="#E8F5E9"/>
  <circle cx="256" cy="256" r="200" fill="#4CAF50" opacity="0.1"/>
  <g transform="translate(128, 100) scale(0.5)">
    <path d="M208 416h288a16 16 0 0 0 16-16v-16a16 16 0 0 0-16-16h-1.99V223.93c0-144-127.49-145.1-127.49-145.1V32a32 32 0 0 0-64 0v46.93c0 .43-45.84 5.14-81.37 45.57C187.5 161.23 176 199.3 176 240v128h-1.99a16 16 0 0 0-16 16v16a16 16 0 0 0 16 16H208zm64-312V47.93h.01c2.67.15 40.45 6.1 71.75 37.41 26.13 26.13 39.58 61.53 40.2 105.61v4.79c-15.15-4.1-30.03-6.74-44.55-6.74-196.5 0-180.5 216-180.5 216h323.99V240c0-38.19-10.94-73.81-34.24-97.11-28.5-28.5-72.6-40.87-144.16-40.89 0 0-1.04-4.9-17.12-4.9-15.65 0-16.38 4.9-16.38 4.9z" fill="#4CAF50"/>
    <path d="M359.45 233.53c-1.68 1.16-3.29 2.38-4.84 3.64-12.6 10.24-30.17 17.32-53.93 20.03-43.56 5.01-72.03-9.35-88.68-40.61-11.85-22.25-13.64-50.27-13.32-78.18.32-27.91 6.11-55.38 6.11-55.38h.01c2.45.15 36.99 6.07 65.72 34.8 23.86 23.86 36.09 56.4 36.74 96.58.47 28.88 19.46 81.61 127.95 87.55C405.36 302.03 389.38 254.95 359.45 233.53z" fill="#388E3C"/>
  </g>
  <text x="256" y="420" font-family="Arial, sans-serif" font-size="40" font-weight="bold" text-anchor="middle" fill="#2E7D32">POMODORO FOREST</text>
</svg>
